<svg xmlns="http://www.w3.org/2000/svg" xmlns:xlink="http://www.w3.org/1999/xlink" width="151.723" height="74.258" viewBox="0 0 151.723 74.258">
  <defs>
    <clipPath id="clip-path">
      <rect id="Rectángulo_470" data-name="Rectángulo 470" width="151.723" height="74.258" fill="none"/>
    </clipPath>
  </defs>
  <g id="Grupo_112" data-name="Grupo 112" transform="translate(39 -24)">
    <g id="Grupo_111" data-name="Grupo 111" transform="translate(-39 24)" clip-path="url(#clip-path)">
      <path id="Trazado_656" data-name="Trazado 656" d="M17.722,140.078a11.356,11.356,0,0,1,3.955,4.839,17.727,17.727,0,0,1,0,13.633,11.355,11.355,0,0,1-3.955,4.838,10.662,10.662,0,0,1-6.2,1.786H2.342A2.3,2.3,0,0,1,0,162.83v-22.2a2.3,2.3,0,0,1,2.342-2.343H11.52a10.664,10.664,0,0,1,6.2,1.786m-1.4,18.126a11.3,11.3,0,0,0,1.728-6.471,11.21,11.21,0,0,0-1.747-6.471,5.854,5.854,0,0,0-5.165-2.554H4.8v18.049h6.336a5.842,5.842,0,0,0,5.184-2.554" transform="translate(0 -91.3)" fill="#fff"/>
      <path id="Trazado_657" data-name="Trazado 657" d="M96.692,172a9.759,9.759,0,0,1-3.783,3.782,11.08,11.08,0,0,1-10.58,0A9.793,9.793,0,0,1,78.567,172a11.672,11.672,0,0,1,0-11.021,9.942,9.942,0,0,1,3.763-3.8,10.946,10.946,0,0,1,10.58,0,9.907,9.907,0,0,1,3.783,3.8,11.674,11.674,0,0,1,0,11.021m-4.013-8.871a5.8,5.8,0,0,0-2.112-2.285,5.753,5.753,0,0,0-5.876,0,5.8,5.8,0,0,0-2.112,2.285,7.038,7.038,0,0,0-.787,3.36,6.923,6.923,0,0,0,.787,3.341,5.823,5.823,0,0,0,2.112,2.265,5.755,5.755,0,0,0,5.876,0,5.825,5.825,0,0,0,2.112-2.265,6.931,6.931,0,0,0,.787-3.341,7.045,7.045,0,0,0-.787-3.36" transform="translate(-50.956 -102.865)" fill="#fff"/>
      <path id="Trazado_658" data-name="Trazado 658" d="M161.933,156.827a3.051,3.051,0,0,1,2,2.707,2.321,2.321,0,0,1-.5,1.478,1.584,1.584,0,0,1-1.306.634,2.45,2.45,0,0,1-1-.173,3.56,3.56,0,0,1-.749-.461,5.449,5.449,0,0,0-.711-.48,4.828,4.828,0,0,0-1.133-.346,6.352,6.352,0,0,0-1.21-.154,5.807,5.807,0,0,0-4.512,1.786,7.342,7.342,0,0,0,.019,9.255,5.442,5.442,0,0,0,4.224,1.824,6.534,6.534,0,0,0,2.8-.461,5.2,5.2,0,0,0,.634-.4,4.373,4.373,0,0,1,.749-.442,2.079,2.079,0,0,1,.845-.154,1.947,1.947,0,0,1,1.517.614,2.257,2.257,0,0,1,.557,1.574,2.225,2.225,0,0,1-1.075,1.728,8.387,8.387,0,0,1-2.842,1.287,14.313,14.313,0,0,1-3.763.48,9.723,9.723,0,0,1-5.2-1.383,9.29,9.29,0,0,1-3.476-3.821,11.9,11.9,0,0,1-1.229-5.434,11.594,11.594,0,0,1,1.286-5.53,9.461,9.461,0,0,1,3.59-3.782,10.067,10.067,0,0,1,5.223-1.363,11.63,11.63,0,0,1,5.261,1.018" transform="translate(-96.767 -102.864)" fill="#fff"/>
      <path id="Trazado_659" data-name="Trazado 659" d="M214.093,142.709v6.759h8.295a2.341,2.341,0,0,1,1.67.634,2.144,2.144,0,0,1,.672,1.632,2.033,2.033,0,0,1-.672,1.5,2.3,2.3,0,0,1-1.67.653h-8.295v8.947a2.2,2.2,0,0,1-.711,1.67,2.352,2.352,0,0,1-1.67.672,2.4,2.4,0,0,1-1.747-.653,2.25,2.25,0,0,1-.672-1.69v-22.2a2.3,2.3,0,0,1,2.343-2.342h12.48a2.342,2.342,0,0,1,1.67.633,2.144,2.144,0,0,1,.672,1.632,2.032,2.032,0,0,1-.672,1.5,2.3,2.3,0,0,1-1.67.653Z" transform="translate(-138.174 -91.3)" fill="#fff"/>
      <path id="Trazado_660" data-name="Trazado 660" d="M276.741,161.518a2.267,2.267,0,0,1-1.67.672,2.158,2.158,0,0,1-1.613-.672,2.3,2.3,0,0,1-.653-1.671V136.115a2.3,2.3,0,0,1,2.343-2.342,2.163,2.163,0,0,1,1.613.672,2.3,2.3,0,0,1,.653,1.67v23.732a2.267,2.267,0,0,1-.672,1.671" transform="translate(-180.104 -88.316)" fill="#fff"/>
      <path id="Trazado_661" data-name="Trazado 661" d="M317.174,172a9.759,9.759,0,0,1-3.783,3.782,11.08,11.08,0,0,1-10.58,0A9.791,9.791,0,0,1,299.049,172a11.672,11.672,0,0,1,0-11.021,9.94,9.94,0,0,1,3.763-3.8,10.946,10.946,0,0,1,10.58,0,9.907,9.907,0,0,1,3.783,3.8,11.675,11.675,0,0,1,0,11.021m-4.013-8.871a5.8,5.8,0,0,0-2.112-2.285,5.752,5.752,0,0,0-5.875,0,5.793,5.793,0,0,0-2.112,2.285,7.038,7.038,0,0,0-.787,3.36,6.923,6.923,0,0,0,.787,3.341,5.821,5.821,0,0,0,2.112,2.265,5.754,5.754,0,0,0,5.875,0,5.823,5.823,0,0,0,2.112-2.265,6.931,6.931,0,0,0,.787-3.341,7.045,7.045,0,0,0-.787-3.36" transform="translate(-196.517 -102.865)" fill="#fff"/>
      <path id="Trazado_662" data-name="Trazado 662" d="M393.044,157.611a2.393,2.393,0,0,1,.633,1.709,3.367,3.367,0,0,1-.154.883l-5.875,15.821a2.081,2.081,0,0,1-.826,1.095,2.251,2.251,0,0,1-1.286.4l-.307-.038a2.25,2.25,0,0,1-1.959-1.459l-3.264-9.447-3.111,9.447a2.252,2.252,0,0,1-1.959,1.459l-.307.038a2.249,2.249,0,0,1-1.287-.4,2.077,2.077,0,0,1-.825-1.095L366.643,160.2a2.558,2.558,0,0,1-.153-.883,2.43,2.43,0,0,1,.633-1.67,2.131,2.131,0,0,1,1.671-.711,2.362,2.362,0,0,1,1.325.365,1.962,1.962,0,0,1,.788,1.094l4.147,11.252,3.033-8.218a2.147,2.147,0,0,1,2.112-1.421,1.985,1.985,0,0,1,1.248.346,2.633,2.633,0,0,1,.749,1.076l2.957,8.026,4.109-11.06a1.929,1.929,0,0,1,.806-1.094,2.6,2.6,0,0,1,1.421-.365,2.057,2.057,0,0,1,1.555.672" transform="translate(-241.954 -103.61)" fill="#fff"/>
      <path id="Trazado_663" data-name="Trazado 663" d="M148.394,37.257a2,2,0,0,1-.236.014,1.736,1.736,0,0,1-1.778-1.71l-.721-30.271a3.188,3.188,0,0,1,2.8-3.145L159.234.884a2.891,2.891,0,0,0-2.417-.865L144.109,1.505a2.89,2.89,0,0,0-2.535,3.206l3.617,30.925a1.981,1.981,0,0,0,2.2,1.738" transform="translate(-93.453 0.001)" fill="#fff"/>
      <path id="Trazado_664" data-name="Trazado 664" d="M211.438,7.692a2.563,2.563,0,0,0,.3-.018l24.334-2.846a1.979,1.979,0,0,0-1.808-.773L209.709,6.927a2.271,2.271,0,0,0,1.729.765" transform="translate(-138.449 -2.669)" fill="#fff"/>
      <path id="Trazado_665" data-name="Trazado 665" d="M204.133,6.962a.674.674,0,0,0-.715-.672.973.973,0,0,0-.112.006L176.9,9.384a3.615,3.615,0,0,1-.423.025,3.272,3.272,0,0,1-3.22-2.428l-.233-.875a1.47,1.47,0,0,0-1.479-1.083,1.914,1.914,0,0,0-.219.013L158.624,6.523a2.134,2.134,0,0,0-1.863,2.063l.721,30.271a.675.675,0,0,0,.715.672.909.909,0,0,0,.113-.007l45.465-5.318a1.118,1.118,0,0,0,.983-1.075Zm-7.7,17.707a2.636,2.636,0,0,1-3.572-1.068c-.025-.046-2.492-4.554-5.222-3.975-1.261.268-2.233,1.6-3.713,3.759-.333.484-.676.985-1.047,1.5-3.224,4.469-6.388,5.557-8.7,5.557a7.321,7.321,0,0,1-.859-.05c-4.654-.546-7.436-4.948-8.416-6.815a2.658,2.658,0,1,1,4.669-2.542c.951,1.812,2.6,3.822,4.362,4.029,1.318.155,3.021-1.068,4.67-3.354.335-.465.662-.94.977-1.4,1.76-2.562,3.58-5.212,6.965-5.931,4.882-1.036,8.861,2.745,10.957,6.629a2.75,2.75,0,0,1-1.068,3.664" transform="translate(-103.492 -3.317)" fill="#fff"/>
    </g>
  </g>
</svg>
