<svg xmlns="http://www.w3.org/2000/svg" xmlns:xlink="http://www.w3.org/1999/xlink" width="109.032" height="18.441" viewBox="0 0 109.032 18.441">
  <defs>
    <clipPath id="clip-path">
      <rect id="Rectángulo_2300" data-name="Rectángulo 2300" width="109.032" height="18.441" transform="translate(0 0)" fill="none"/>
    </clipPath>
  </defs>
  <g id="Grupo_28277" data-name="Grupo 28277" transform="translate(0 0)">
    <g id="Grupo_28276" data-name="Grupo 28276" transform="translate(0 0)" clip-path="url(#clip-path)">
      <path id="Trazado_9584" data-name="Trazado 9584" d="M212.769,18.037a5.6,5.6,0,0,1,1.951,2.387,8.744,8.744,0,0,1,0,6.724,5.6,5.6,0,0,1-1.951,2.386,5.259,5.259,0,0,1-3.059.881h-4.527a1.133,1.133,0,0,1-1.155-1.156V18.311a1.132,1.132,0,0,1,1.155-1.155h4.527a5.26,5.26,0,0,1,3.059.881m-.691,8.94a5.575,5.575,0,0,0,.852-3.192,5.529,5.529,0,0,0-.862-3.192,2.887,2.887,0,0,0-2.547-1.26H206.4v8.9h3.125a2.881,2.881,0,0,0,2.557-1.26" transform="translate(-169.832 -14.281)" fill="#fff"/>
      <path id="Trazado_9585" data-name="Trazado 9585" d="M290.834,42.657a4.813,4.813,0,0,1-1.866,1.866,5.465,5.465,0,0,1-5.218,0,4.83,4.83,0,0,1-1.856-1.866,5.757,5.757,0,0,1,0-5.436,4.9,4.9,0,0,1,1.856-1.875,5.4,5.4,0,0,1,5.218,0,4.886,4.886,0,0,1,1.866,1.875,5.758,5.758,0,0,1,0,5.436m-1.979-4.375a2.86,2.86,0,0,0-1.042-1.127,2.837,2.837,0,0,0-2.9,0,2.859,2.859,0,0,0-1.042,1.127,3.472,3.472,0,0,0-.388,1.657,3.415,3.415,0,0,0,.388,1.648,2.873,2.873,0,0,0,1.042,1.117,2.839,2.839,0,0,0,2.9,0,2.873,2.873,0,0,0,1.042-1.117,3.419,3.419,0,0,0,.388-1.648,3.475,3.475,0,0,0-.388-1.657" transform="translate(-234.079 -28.862)" fill="#fff"/>
      <path id="Trazado_9586" data-name="Trazado 9586" d="M358.177,35.175a1.5,1.5,0,0,1,.985,1.335,1.145,1.145,0,0,1-.246.729.781.781,0,0,1-.644.313,1.208,1.208,0,0,1-.492-.085,1.756,1.756,0,0,1-.369-.227,2.684,2.684,0,0,0-.35-.237,2.38,2.38,0,0,0-.559-.17,3.133,3.133,0,0,0-.6-.076,2.864,2.864,0,0,0-2.226.881,3.621,3.621,0,0,0,.01,4.565,2.684,2.684,0,0,0,2.083.9,3.223,3.223,0,0,0,1.383-.227,2.564,2.564,0,0,0,.313-.2,2.157,2.157,0,0,1,.369-.218,1.026,1.026,0,0,1,.417-.076.96.96,0,0,1,.748.3,1.113,1.113,0,0,1,.275.777,1.1,1.1,0,0,1-.53.852,4.137,4.137,0,0,1-1.4.635,7.06,7.06,0,0,1-1.856.237,4.8,4.8,0,0,1-2.566-.682,4.582,4.582,0,0,1-1.714-1.885,5.867,5.867,0,0,1-.606-2.68,5.719,5.719,0,0,1,.634-2.728,4.667,4.667,0,0,1,1.771-1.866,4.965,4.965,0,0,1,2.576-.672,5.736,5.736,0,0,1,2.595.5" transform="translate(-291.838 -28.862)" fill="#fff"/>
      <path id="Trazado_9587" data-name="Trazado 9587" d="M415.688,19.334v3.334h4.091a1.155,1.155,0,0,1,.824.313,1.058,1.058,0,0,1,.332.805,1,1,0,0,1-.332.739,1.135,1.135,0,0,1-.824.322h-4.091v4.413a1.088,1.088,0,0,1-.35.824,1.16,1.16,0,0,1-.824.332,1.183,1.183,0,0,1-.862-.322,1.11,1.11,0,0,1-.332-.833V18.311a1.132,1.132,0,0,1,1.155-1.155h6.156a1.155,1.155,0,0,1,.824.312,1.058,1.058,0,0,1,.332.805,1,1,0,0,1-.332.739,1.135,1.135,0,0,1-.824.322Z" transform="translate(-344.046 -14.281)" fill="#fff"/>
      <path id="Trazado_9588" data-name="Trazado 9588" d="M478.773,26.321a1.118,1.118,0,0,1-.824.332,1.064,1.064,0,0,1-.8-.332,1.134,1.134,0,0,1-.322-.824V13.791a1.132,1.132,0,0,1,1.155-1.155,1.067,1.067,0,0,1,.8.331,1.137,1.137,0,0,1,.322.824V25.5a1.118,1.118,0,0,1-.332.824" transform="translate(-396.913 -10.518)" fill="#fff"/>
      <path id="Trazado_9589" data-name="Trazado 9589" d="M511.315,42.657a4.813,4.813,0,0,1-1.866,1.866,5.465,5.465,0,0,1-5.218,0,4.829,4.829,0,0,1-1.856-1.866,5.757,5.757,0,0,1,0-5.436,4.9,4.9,0,0,1,1.856-1.875,5.4,5.4,0,0,1,5.218,0,4.886,4.886,0,0,1,1.866,1.875,5.758,5.758,0,0,1,0,5.436m-1.979-4.375a2.858,2.858,0,0,0-1.042-1.127,2.837,2.837,0,0,0-2.9,0,2.857,2.857,0,0,0-1.042,1.127,3.472,3.472,0,0,0-.388,1.657,3.415,3.415,0,0,0,.388,1.648A2.871,2.871,0,0,0,505.4,42.7a2.838,2.838,0,0,0,2.9,0,2.872,2.872,0,0,0,1.042-1.117,3.418,3.418,0,0,0,.388-1.648,3.474,3.474,0,0,0-.388-1.657" transform="translate(-417.607 -28.862)" fill="#fff"/>
      <path id="Trazado_9590" data-name="Trazado 9590" d="M583.615,36.134a1.18,1.18,0,0,1,.312.843,1.661,1.661,0,0,1-.076.436l-2.9,7.8a1.026,1.026,0,0,1-.407.54,1.11,1.11,0,0,1-.635.2l-.151-.019a1.11,1.11,0,0,1-.966-.72l-1.61-4.659-1.534,4.659a1.11,1.11,0,0,1-.966.72l-.151.019a1.109,1.109,0,0,1-.635-.2,1.025,1.025,0,0,1-.407-.54l-2.9-7.8a1.262,1.262,0,0,1-.076-.436,1.2,1.2,0,0,1,.312-.824,1.051,1.051,0,0,1,.824-.35,1.165,1.165,0,0,1,.653.18.968.968,0,0,1,.389.54l2.046,5.55,1.5-4.053a1.059,1.059,0,0,1,1.042-.7.979.979,0,0,1,.616.17,1.3,1.3,0,0,1,.369.53l1.459,3.959,2.027-5.455a.951.951,0,0,1,.4-.54,1.284,1.284,0,0,1,.7-.18,1.015,1.015,0,0,1,.767.332" transform="translate(-474.896 -29.801)" fill="#fff"/>
      <path id="Trazado_9591" data-name="Trazado 9591" d="M3.373,18.377a.985.985,0,0,1-.116.007.856.856,0,0,1-.877-.844L2.024,2.609A1.573,1.573,0,0,1,3.406,1.058L8.72.437A1.426,1.426,0,0,0,7.527.01L1.26.743A1.425,1.425,0,0,0,.009,2.324L1.793,17.578a.977.977,0,0,0,1.084.857" transform="translate(0 0)" fill="#fff"/>
      <path id="Trazado_9592" data-name="Trazado 9592" d="M69.008,5.843a1.264,1.264,0,0,0,.148-.009l12-1.4a.976.976,0,0,0-.892-.381L68.155,5.466a1.12,1.12,0,0,0,.853.377" transform="translate(-56.732 -3.365)" fill="#fff"/>
      <path id="Trazado_9593" data-name="Trazado 9593" d="M38.571,5.98a.333.333,0,0,0-.352-.331.48.48,0,0,0-.055,0L25.141,7.175a1.783,1.783,0,0,1-.209.012,1.614,1.614,0,0,1-1.588-1.2l-.115-.432a.725.725,0,0,0-.729-.534.944.944,0,0,0-.108.006l-6.268.733A1.052,1.052,0,0,0,15.2,6.781l.355,14.931a.333.333,0,0,0,.352.331.449.449,0,0,0,.056,0l22.425-2.623a.551.551,0,0,0,.485-.53Zm-3.8,8.734a1.3,1.3,0,0,1-1.762-.527c-.012-.022-1.229-2.246-2.576-1.96-.622.132-1.1.79-1.832,1.854-.164.239-.334.486-.516.739-1.59,2.2-3.151,2.741-4.292,2.741a3.611,3.611,0,0,1-.424-.025c-2.3-.269-3.668-2.441-4.151-3.362a1.311,1.311,0,1,1,2.3-1.254c.469.894,1.281,1.885,2.152,1.987.65.076,1.49-.527,2.3-1.654.165-.229.326-.464.482-.69.868-1.264,1.766-2.571,3.435-2.925,2.408-.511,4.371,1.354,5.4,3.269a1.356,1.356,0,0,1-.527,1.807" transform="translate(-12.656 -4.182)" fill="#fff"/>
    </g>
  </g>
</svg>
